<?xml version="1.0" encoding="iso-8859-1"?>
<!-- Generator: Adobe Illustrator 19.0.0, SVG Export Plug-In . SVG Version: 6.00 Build 0)  -->
<svg version="1.1" id="Layer_1" xmlns="http://www.w3.org/2000/svg" xmlns:xlink="http://www.w3.org/1999/xlink" x="0px" y="0px"
	 viewBox="0 0 512 512" style="enable-background:new 0 0 512 512;" xml:space="preserve">
<g>
	<g>
		<path d="M503.427,349.632c-0.005-0.102-0.006-0.203-0.015-0.305c-0.056-0.607-0.179-1.194-0.362-1.755
			c-0.004-0.015-0.007-0.03-0.012-0.045l-33.794-101.379V42.221c0-4.427-3.588-8.017-8.017-8.017H349.528V8.017
			c0-4.427-3.588-8.017-8.017-8.017H170.489c-4.428,0-8.017,3.589-8.017,8.017v26.188H50.772c-4.428,0-8.017,3.589-8.017,8.017
			v42.756c0,4.427,3.588,8.017,8.017,8.017c4.428,0,8.017-3.589,8.017-8.017V50.238h394.422v189.194H58.789v-120.25
			c0-4.427-3.588-8.017-8.017-8.017c-4.428,0-8.017,3.589-8.017,8.017v126.966L8.963,347.527c-0.005,0.015-0.007,0.03-0.012,0.045
			c-0.183,0.56-0.307,1.147-0.362,1.755c-0.01,0.102-0.01,0.203-0.015,0.305c-0.009,0.144-0.022,0.285-0.022,0.431v102.614
			c0,4.427,3.588,8.017,8.017,8.017h137.353v43.29c0,4.427,3.588,8.017,8.017,8.017h188.125c4.428,0,8.017-3.589,8.017-8.017v-43.29
			h137.353c4.428,0,8.017-3.589,8.017-8.017V350.063C503.449,349.917,503.435,349.776,503.427,349.632z M333.495,34.205h-154.99
			V16.033h154.99V34.205z M281.119,255.466h18.171v86.58h-18.171V255.466z M246.914,255.466h18.171v86.58h-18.171V255.466z
			 M212.71,255.466h18.171v86.58H212.71V255.466z M56.55,255.466h140.127v86.58H27.69L56.55,255.466z M153.921,410.455h-9.62
			v-18.171h9.62V410.455z M342.046,495.967H169.954V392.284h172.092V495.967z M487.415,444.66H358.079v-18.171h17.637
			c4.428,0,8.017-3.589,8.017-8.017v-34.205c0-4.427-3.588-8.017-8.017-8.017H136.284c-4.428,0-8.017,3.589-8.017,8.017v34.205
			c0,4.427,3.588,8.017,8.017,8.017h17.637v18.171H24.585v-86.58h393.887c4.428,0,8.017-3.589,8.017-8.017s-3.588-8.017-8.017-8.017
			H315.324v-86.58H455.45l28.86,86.58h-31.634c-4.428,0-8.017,3.589-8.017,8.017s3.588,8.017,8.017,8.017h34.739V444.66z
			 M358.079,410.455v-18.171h9.62v18.171H358.079z"/>
	</g>
</g>
<g>
	<g>
		<path d="M256,68.409c-42.141,0-76.426,34.285-76.426,76.426s34.285,76.426,76.426,76.426s76.426-34.285,76.426-76.426
			S298.141,68.409,256,68.409z M256,205.228c-33.3,0-60.392-27.092-60.392-60.392S222.7,84.443,256,84.443
			s60.393,27.092,60.393,60.393S289.3,205.228,256,205.228z"/>
	</g>
</g>
<g>
	<g>
		<path d="M256,94.063c-27.995,0-50.772,22.777-50.772,50.772s22.777,50.772,50.772,50.772s50.772-22.777,50.772-50.772
			C306.772,116.84,283.995,94.063,256,94.063z M256,179.574c-19.156,0-34.739-15.584-34.739-34.739
			c0-19.155,15.583-34.739,34.739-34.739s34.739,15.584,34.739,34.739C290.739,163.99,275.156,179.574,256,179.574z"/>
	</g>
</g>
<g>
	<g>
		<path d="M375.716,171.023c-13.851,0-25.119,11.268-25.119,25.119s11.268,25.119,25.119,25.119
			c13.851,0,25.119-11.268,25.119-25.119S389.567,171.023,375.716,171.023z M375.716,205.228c-5.01,0-9.086-4.076-9.086-9.086
			s4.076-9.086,9.086-9.086c5.01,0,9.086,4.076,9.086,9.086S380.726,205.228,375.716,205.228z"/>
	</g>
</g>
<g>
	<g>
		<path d="M136.284,171.023c-13.851,0-25.119,11.268-25.119,25.119s11.268,25.119,25.119,25.119s25.119-11.268,25.119-25.119
			S150.135,171.023,136.284,171.023z M136.284,205.228c-5.01,0-9.086-4.076-9.086-9.086s4.076-9.086,9.086-9.086
			s9.086,4.076,9.086,9.086S141.294,205.228,136.284,205.228z"/>
	</g>
</g>
<g>
	<g>
		<path d="M427.023,68.409h-68.409c-4.428,0-8.017,3.589-8.017,8.017v68.409c0,4.427,3.588,8.017,8.017,8.017h68.409
			c4.428,0,8.017-3.589,8.017-8.017V76.426C435.04,71.999,431.451,68.409,427.023,68.409z M419.006,136.818H366.63V84.443h52.376
			V136.818z"/>
	</g>
</g>
<g>
	<g>
		<path d="M153.386,102.614H84.977c-4.428,0-8.017,3.589-8.017,8.017s3.588,8.017,8.017,8.017h68.409
			c4.428,0,8.017-3.589,8.017-8.017S157.815,102.614,153.386,102.614z"/>
	</g>
</g>
<g>
	<g>
		<path d="M153.386,136.818H84.977c-4.428,0-8.017,3.589-8.017,8.017s3.588,8.017,8.017,8.017h68.409
			c4.428,0,8.017-3.589,8.017-8.017S157.815,136.818,153.386,136.818z"/>
	</g>
</g>
<g>
</g>
<g>
</g>
<g>
</g>
<g>
</g>
<g>
</g>
<g>
</g>
<g>
</g>
<g>
</g>
<g>
</g>
<g>
</g>
<g>
</g>
<g>
</g>
<g>
</g>
<g>
</g>
<g>
</g>
</svg>
